<svg xmlns="http://www.w3.org/2000/svg" viewBox="0 0 2700 900">
	<!-- white king //-->
	<g style="fill: none; stroke: #000000; stroke-width: 15; stroke-linecap: round; stroke-linejoin: round;" transform="translate(0,0)">
		<path d="M 225 116.3 L 225 60" style="stroke-linejoin: miter;" />
		<path d="M 200 80 L 250 80" style="stroke-linejoin: miter;" />
		<path d="M 225 250 C 225 250 270 175 255 145 C 255 145 245 120 225 120 C 205 120 195 145 195 145 C 180 175 225 250 225 250"
			style="fill: #ffffff; stroke: #000000; stroke-linecap: butt; stroke-linejoin: miter;" />
		<path d="M 115 370 C 170 405 270 405 325 370 L 325 300 C 325 300 415 255 385 195 C 345 130 250 160 225 235 L 225 270 L 225 235 C 190 160 95 130 65 195 C 35 255 115 295 115 295 L 115 370 Z"
			style="fill: #ffffff; stroke: #000000;" />
		<path d="M 115 300 C 170 270 270 270 325 300" />
		<path d="M 115 335 C 170 305 270 305 325 335" />
		<path d="M 115 370 C 170 340 270 340 325 370" />
	</g>

	<!-- white queen //-->
	<g style="fill: #ffffff; stroke: #000000; stroke-width: 15; stroke-linecap: round; stroke-linejoin: round;" transform="translate(450,0)">
		<path d="M 80 120 A 20 20 90 1 1 40 120 A 20 20 90 1 1 80 120 z" />
		<path d="M 245 75 A 20 20 90 1 1 205 75 A 20 20 90 1 1 245 75 Z" />
		<path d="M 410 120 A 20 20 90 1 1 370 120 A 20 20 90 1 1 410 120 Z" />
		<path d="M 160 85 A 20 20 90 1 1 120 85 A 20 20 90 1 1 160 85 Z" />
		<path d="M 330 90 A 20 20 90 1 1 290 90 A 20 20 90 1 1 330 90 z" />
		<path d="M 90 260 C 175 245 300 245 360 260 L 380 140 L 310 250 L 310 110 L 255 245 L 225 95 L 195 245 L 140 105 L 140 250 L 70 140 L 90 260 Z"
			style="stroke-linecap:butt;" />
		<path d="M 90 260 C 90 280 105 280 115 300 C 125 315 125 310 120 335 C 105 345 105 360 105 360 C 90 375 110 385 110 385 C 175 395 275 395 340 385 C 340 385 355 375 340 360 C 340 360 345 345 330 335 C 325 310 325 315 335 300 C 345 280 360 280 360 260 C 275 245 175 245 90 260 Z"
			style="stroke-linecap:butt;" />
		<path d="M 115 300 C 150 290 300 290 335 300"
			style="fill: none;" />
		<path d="M 120 335 C 180 325 270 325 330 335"
			style="fill:none;" />
	</g>

	<!-- white bishop //-->
	<g style="fill: #ffffff; stroke: #000000; stroke-width: 15; stroke-linecap: butt; stroke-linejoin: round;" transform="translate(900,0)">
		<path d="M 90 360 C 123.9 350.3 191.1 364.3 225 340 C 258.9 364.3 326.1 350.3 360 360 C 360 360 376.5 365.4 390 380 C 383.2 389.7 373.5 389.9 360 385 C 326.1 375.3 258.9 389.6 225 375 C 191.1 389.6 123.9 375.3 90 385 C 76.46 389.9 66.77 389.7 60 380 C 73.54 360.6 90 360 90 360 z" />
		<path d="M 150 320 C 175 345 275 345 300 320 C 305 305 300 300 300 300 C 300 275 275 260 275 260 C 330 245 335 145 225 105 C 115 145 120 245 175 260 C 175 260 150 275 150 300 C 150 300 145 305 150 320 Z" />
		<path d="M 250 80 A 25 25 90 1 1 200 80 A 25 25 90 1 1 250 80 Z" />
		<path d="M 175 260 L 275 260 M 150 300 L 300 300 M 225 155 L 225 205 M 200 180 L 250 180" style="fill: none; stroke-linecap: round; stroke-linejoin: miter;" />
	</g>

	<!-- white knight //-->
	<g style="fill: none; stroke: #000000; stroke-width: 15; stroke-linecap:round; stroke-linejoin:round;" transform="translate(1350,0)">
		<path d="M 220 100 C 325 110 385 180 380 390 L 150 390 C 150 300 250 325 230 180" style="fill: #ffffff;" />
		<path d="M 240 180 C 243.8 209.1 184.5 253.7 160 270 C 130 290 131.8 313.4 110 310 C 99.58 300.6 124.1 279.6 110 280 C 100 280 111.9 292.3 100 300 C 90 300 59.97 310 60 260 C 60 240 120 140 120 140 C 120 140 138.9 121 140 105 C 132.7 95.06 135 85 135 75 C 145 65 165 100 165 100 L 185 100 C 185 100 192.8 80.08 210 70 C 220 70 220 100 220 100"
			style="fill: #ffffff;" />
		<path d="M 95 255 A 5 5 90 1 1 85 255 A 5 5 90 1 1 95 255 Z" style="fill: #000000;" />
		<path d="M 154.006 145.933 A 15 5 -60 1 1 145.346 140.933 A 15 5 -60 1 1 154.006 145.933 Z"
			style="fill: 000000;" />
	</g>

	<!-- white rook //-->
	<g style="fill: #ffffff; stroke: #000000; stroke-width: 15; stroke-linecap: butt; stroke-linejoin: round;" transform="translate(1800,0)">
		<path d="M 90 390 L 360 390 L 360 360 L 90 360 L 90 390 Z" />
		<path d="M 120 360 L 120 320 L 330 320 L 330 360 L 120 360 z" />
		<path d="M 110 140 L 110 90 L 150 90 L 150 110 L 200 110 L 200 90 L 250 90 L 250 110 L 300 110 L 300 90 L 340 90 L 340 140" />
		<path d="M 340 140 L 310 170 L 140 170 L 110 140" style="stroke-linecap: round;" />
		<path d="M 310 170 L 310 295 L 140 295 L 140 170" style=" stroke-linejoin:miter;" />
		<path d="M 310 295 L 325 320 L 125 320 L 140 295" style="stroke-linecap: round;" />
		<path d="M 110 140 L 340 140" style="fill: none; stroke-linecap: round; stroke-linejoin: miter;" />
	</g>

	<!-- white pawn //-->
	<g transform="translate(2250,0)">
		<path d="M 220 90 C 197.9 90 180 107.9 180 130 C 180 138.9 182.9 147.1 187.8 153.8 C 168.3 165 155 185.9 155 210 C 155 230.3 164.4 248.4 179.1 260.3 C 149.1 270.9 105 315.8 105 395 L 335 395 C 335 315.8 290.9 270.9 260.9 260.3 C 275.6 248.4 285 230.3 285 210 C 285 185.9 271.7 165 252.2 153.8 C 257.1 147.1 260 138.9 260 130 C 260 107.9 242.1 90 220 90 z"
			style="fill: #ffffff; stroke: #000000; stroke-width: 15; stroke-linecap: round; stroke-linejoin: miter;" />
	</g>

	<!-- black king //-->
	<!-- <g style="fill:none; fill-opacity:1; fill-rule:evenodd; stroke:#000000; stroke-width:1.5; stroke-linecap:round;stroke-linejoin:round;stroke-miterlimit:4; stroke-dasharray:none; stroke-opacity:1;" transform="translate(0,45)">
		<path
			d="M 22.5,11.63 L 22.5,6"
			style="fill:none; stroke:#000000; stroke-linejoin:miter;" />
		<path
			d="M 22.5,25 C 22.5,25 27,17.5 25.5,14.5 C 25.5,14.5 24.5,12 22.5,12 C 20.5,12 19.5,14.5 19.5,14.5 C 18,17.5 22.5,25 22.5,25"
			style="fill:#000000;fill-opacity:1; stroke-linecap:butt; stroke-linejoin:miter;" />
		<path
		   d="M 11.5,37 C 17,40.5 27,40.5 32.5,37 L 32.5,30 C 32.5,30 41.5,25.5 38.5,19.5 C 34.5,13 25,16 22.5,23.5 L 22.5,27 L 22.5,23.5 C 19,16 9.5,13 6.5,19.5 C 3.5,25.5 11.5,29.5 11.5,29.5 L 11.5,37 z "
		   style="fill:#000000; stroke:#000000;" />
		<path
		   d="M 20,8 L 25,8"
		   style="fill:none; stroke:#000000; stroke-linejoin:miter;" />
		<path
		   d="M 32,29.5 C 32,29.5 40.5,25.5 38.03,19.85 C 34.15,14 25,18 22.5,24.5 L 22.51,26.6 L 22.5,24.5 C 20,18 9.906,14 6.997,19.85 C 4.5,25.5 11.85,28.85 11.85,28.85"
		   style="fill:none; stroke:#ffffff;" />
		<path
		   d="M 11.5,30 C 17,27 27,27 32.5,30 M 11.5,33.5 C 17,30.5 27,30.5 32.5,33.5 M 11.5,37 C 17,34 27,34 32.5,37"
		   style="fill:none; stroke:#ffffff;" />
	</g> -->

	<!-- black queen //-->
	<!-- <g style="opacity:1; fill:000000; fill-opacity:1; fill-rule:evenodd; stroke:#000000; stroke-width:1.5; stroke-linecap:round;stroke-linejoin:round;stroke-miterlimit:4; stroke-dasharray:none; stroke-opacity:1;" transform="translate(45,45)">
		<g style="fill:#000000; stroke:none;">
			<circle cx="6"    cy="12" r="2.75" />
			<circle cx="14"   cy="9"  r="2.75" />
			<circle cx="22.5" cy="8"  r="2.75" />
			<circle cx="31"   cy="9"  r="2.75" />
			<circle cx="39"   cy="12" r="2.75" />
		</g>
		<path
		d="M 9,26 C 17.5,24.5 30,24.5 36,26 L 38.5,13.5 L 31,25 L 30.7,10.9 L 25.5,24.5 L 22.5,10 L 19.5,24.5 L 14.3,10.9 L 14,25 L 6.5,13.5 L 9,26 z"
		style="stroke-linecap:butt; stroke:#000000;" />
		<path
		d="M 9,26 C 9,28 10.5,28 11.5,30 C 12.5,31.5 12.5,31 12,33.5 C 10.5,34.5 10.5,36 10.5,36 C 9,37.5 11,38.5 11,38.5 C 17.5,39.5 27.5,39.5 34,38.5 C 34,38.5 35.5,37.5 34,36 C 34,36 34.5,34.5 33,33.5 C 32.5,31 32.5,31.5 33.5,30 C 34.5,28 36,28 36,26 C 27.5,24.5 17.5,24.5 9,26 z"
		style="stroke-linecap:butt;" />
		<path
		d="M 11,38.5 A 35,35 1 0 0 34,38.5"
		style="fill:none; stroke:#000000; stroke-linecap:butt;" />
		<path
		d="M 11,29 A 35,35 1 0 1 34,29"
		style="fill:none; stroke:#ffffff;" />
		<path
		d="M 12.5,31.5 L 32.5,31.5"
		style="fill:none; stroke:#ffffff;" />
		<path
		d="M 11.5,34.5 A 35,35 1 0 0 33.5,34.5"
		style="fill:none; stroke:#ffffff;" />
		<path
		d="M 10.5,37.5 A 35,35 1 0 0 34.5,37.5"
		style="fill:none; stroke:#ffffff;" />
	</g> -->

	<!-- black bishop //-->
	<!-- <g style="opacity:1; fill:none; fill-rule:evenodd; fill-opacity:1; stroke:#000000; stroke-width:1.5; stroke-linecap:round; stroke-linejoin:round; stroke-miterlimit:4; stroke-dasharray:none; stroke-opacity:1;" transform="translate(90,45)">
		<g style="fill:#000000; stroke:#000000; stroke-linecap:butt;">
			<path
				d="M 9,36 C 12.39,35.03 19.11,36.43 22.5,34 C 25.89,36.43 32.61,35.03 36,36 C 36,36 37.65,36.54 39,38 C 38.32,38.97 37.35,38.99 36,38.5 C 32.61,37.53 25.89,38.96 22.5,37.5 C 19.11,38.96 12.39,37.53 9,38.5 C 7.646,38.99 6.677,38.97 6,38 C 7.354,36.06 9,36 9,36 z" />
			<path
				d="M 15,32 C 17.5,34.5 27.5,34.5 30,32 C 30.5,30.5 30,30 30,30 C 30,27.5 27.5,26 27.5,26 C 33,24.5 33.5,14.5 22.5,10.5 C 11.5,14.5 12,24.5 17.5,26 C 17.5,26 15,27.5 15,30 C 15,30 14.5,30.5 15,32 z" />
			<path
				d="M 25 8 A 2.5 2.5 0 1 1  20,8 A 2.5 2.5 0 1 1  25 8 z" />
		</g>
		<path
		   d="M 17.5,26 L 27.5,26 M 15,30 L 30,30 M 22.5,15.5 L 22.5,20.5 M 20,18 L 25,18"
		   style="fill:none; stroke:#ffffff; stroke-linejoin:miter;" />
	</g> -->

	<!-- black knight //-->
	<!-- <g style="opacity:1; fill:none; fill-opacity:1; fill-rule:evenodd; stroke:#000000; stroke-width:1.5; stroke-linecap:round;stroke-linejoin:round;stroke-miterlimit:4; stroke-dasharray:none; stroke-opacity:1;" transform="translate(135,45)">
		<path
		   d="M 22,10 C 32.5,11 38.5,18 38,39 L 15,39 C 15,30 25,32.5 23,18"
		   style="fill:#000000; stroke:#000000;" />
		<path
		   d="M 24,18 C 24.38,20.91 18.45,25.37 16,27 C 13,29 13.18,31.34 11,31 C 9.958,30.06 12.41,27.96 11,28 C 10,28 11.19,29.23 10,30 C 9,30 5.997,31 6,26 C 6,24 12,14 12,14 C 12,14 13.89,12.1 14,10.5 C 13.27,9.506 13.5,8.5 13.5,7.5 C 14.5,6.5 16.5,10 16.5,10 L 18.5,10 C 18.5,10 19.28,8.008 21,7 C 22,7 22,10 22,10"
		   style="fill:#000000; stroke:#000000;" />
		<path
		   d="M 9.5 25.5 A 0.5 0.5 0 1 1 8.5,25.5 A 0.5 0.5 0 1 1 9.5 25.5 z"
		   style="fill:#ffffff; stroke:#ffffff;" />
		<path
		   d="M 15 15.5 A 0.5 1.5 0 1 1  14,15.5 A 0.5 1.5 0 1 1  15 15.5 z"
		   transform="matrix(0.866,0.5,-0.5,0.866,9.693,-5.173)"
		   style="fill:#ffffff; stroke:#ffffff;" />
		<path
		   d="M 24.55,10.4 L 24.1,11.85 L 24.6,12 C 27.75,13 30.25,14.49 32.5,18.75 C 34.75,23.01 35.75,29.06 35.25,39 L 35.2,39.5 L 37.45,39.5 L 37.5,39 C 38,28.94 36.62,22.15 34.25,17.66 C 31.88,13.17 28.46,11.02 25.06,10.5 L 24.55,10.4 z "
		   style="fill:#ffffff; stroke:none;" />
	</g> -->

	<!-- black rook //-->
	<!-- <g style="opacity:1; fill:000000; fill-opacity:1; fill-rule:evenodd; stroke:#000000; stroke-width:1.5; stroke-linecap:round;stroke-linejoin:round;stroke-miterlimit:4; stroke-dasharray:none; stroke-opacity:1;" transform="translate(180,45)">
		<path
		d="M 9,39 L 36,39 L 36,36 L 9,36 L 9,39 z "
		style="stroke-linecap:butt;" />
		<path
		d="M 12.5,32 L 14,29.5 L 31,29.5 L 32.5,32 L 12.5,32 z "
		style="stroke-linecap:butt;" />
		<path
		d="M 12,36 L 12,32 L 33,32 L 33,36 L 12,36 z "
		style="stroke-linecap:butt;" />
		<path
		d="M 14,29.5 L 14,16.5 L 31,16.5 L 31,29.5 L 14,29.5 z "
		style="stroke-linecap:butt;stroke-linejoin:miter;" />
		<path
		d="M 14,16.5 L 11,14 L 34,14 L 31,16.5 L 14,16.5 z "
		style="stroke-linecap:butt;" />
		<path
		d="M 11,14 L 11,9 L 15,9 L 15,11 L 20,11 L 20,9 L 25,9 L 25,11 L 30,11 L 30,9 L 34,9 L 34,14 L 11,14 z "
		style="stroke-linecap:butt;" />
		<path
		d="M 12,35.5 L 33,35.5 L 33,35.5"
		style="fill:none; stroke:#ffffff; stroke-width:1; stroke-linejoin:miter;" />
		<path
		d="M 13,31.5 L 32,31.5"
		style="fill:none; stroke:#ffffff; stroke-width:1; stroke-linejoin:miter;" />
		<path
		d="M 14,29.5 L 31,29.5"
		style="fill:none; stroke:#ffffff; stroke-width:1; stroke-linejoin:miter;" />
		<path
		d="M 14,16.5 L 31,16.5"
		style="fill:none; stroke:#ffffff; stroke-width:1; stroke-linejoin:miter;" />
		<path
		d="M 11,14 L 34,14"
		style="fill:none; stroke:#ffffff; stroke-width:1; stroke-linejoin:miter;" />
	</g> -->

	<!-- black pawn //-->
	<!-- <g transform="translate(225,45)">
		<path
		d="M 22,9 C 19.79,9 18,10.79 18,13 C 18,13.89 18.29,14.71 18.78,15.38 C 16.83,16.5 15.5,18.59 15.5,21 C 15.5,23.03 16.44,24.84 17.91,26.03 C 14.91,27.09 10.5,31.58 10.5,39.5 L 33.5,39.5 C 33.5,31.58 29.09,27.09 26.09,26.03 C 27.56,24.84 28.5,23.03 28.5,21 C 28.5,18.59 27.17,16.5 25.22,15.38 C 25.71,14.71 26,13.89 26,13 C 26,10.79 24.21,9 22,9 z "
		style="opacity:1; fill:#000000; fill-opacity:1; fill-rule:nonzero; stroke:#000000; stroke-width:1.5; stroke-linecap:round; stroke-linejoin:miter; stroke-miterlimit:4; stroke-dasharray:none; stroke-opacity:1;" />
	</g> -->
</svg>