<svg xmlns="http://www.w3.org/2000/svg" viewBox="0 0 2700 900">
	<!-- white king //-->
	<g style="fill: none; stroke: #000000; stroke-width: 15; stroke-linecap: round; stroke-linejoin: round;" transform="translate(0,0)">
		<path d="M 225 116.3 L 225 60" style="stroke-linejoin: miter;" />
		<path d="M 200 80 L 250 80" style="stroke-linejoin: miter;" />
		<path d="M 225 250 C 225 250 270 175 255 145 C 255 145 245 120 225 120 C 205 120 195 145 195 145 C 180 175 225 250 225 250"
			style="fill: #ffffff; stroke: #000000; stroke-linecap: butt; stroke-linejoin: miter;" />
		<path d="M 115 370 C 170 405 270 405 325 370 L 325 300 C 325 300 415 255 385 195 C 345 130 250 160 225 235 L 225 270 L 225 235 C 190 160 95 130 65 195 C 35 255 115 295 115 295 L 115 370 Z"
			style="fill: #ffffff; stroke: #000000;" />
		<path d="M 115 300 C 170 270 270 270 325 300" />
		<path d="M 115 335 C 170 305 270 305 325 335" />
		<path d="M 115 370 C 170 340 270 340 325 370" />
	</g>

	<!-- white queen //-->
	<g style="fill: #ffffff; stroke: #000000; stroke-width: 15; stroke-linecap: round; stroke-linejoin: round;" transform="translate(450,0)">
		<path d="M 80 120 A 20 20 90 1 1 40 120 A 20 20 90 1 1 80 120 z" />
		<path d="M 245 75 A 20 20 90 1 1 205 75 A 20 20 90 1 1 245 75 Z" />
		<path d="M 410 120 A 20 20 90 1 1 370 120 A 20 20 90 1 1 410 120 Z" />
		<path d="M 160 85 A 20 20 90 1 1 120 85 A 20 20 90 1 1 160 85 Z" />
		<path d="M 330 90 A 20 20 90 1 1 290 90 A 20 20 90 1 1 330 90 z" />
		<path d="M 90 260 C 175 245 300 245 360 260 L 380 140 L 310 250 L 310 110 L 255 245 L 225 95 L 195 245 L 140 105 L 140 250 L 70 140 L 90 260 Z"
			style="stroke-linecap:butt;" />
		<path d="M 90 260 C 90 280 105 280 115 300 C 125 315 125 310 120 335 C 105 345 105 360 105 360 C 90 375 110 385 110 385 C 175 395 275 395 340 385 C 340 385 355 375 340 360 C 340 360 345 345 330 335 C 325 310 325 315 335 300 C 345 280 360 280 360 260 C 275 245 175 245 90 260 Z"
			style="stroke-linecap:butt;" />
		<path d="M 115 300 C 150 290 300 290 335 300"
			style="fill: none;" />
		<path d="M 120 335 C 180 325 270 325 330 335"
			style="fill:none;" />
	</g>

	<!-- white bishop //-->
	<g style="fill: #ffffff; stroke: #000000; stroke-width: 15; stroke-linecap: butt; stroke-linejoin: round;" transform="translate(900,0)">
		<path d="M 90 360 C 123.9 350.3 191.1 364.3 225 340 C 258.9 364.3 326.1 350.3 360 360 C 360 360 376.5 365.4 390 380 C 383.2 389.7 373.5 389.9 360 385 C 326.1 375.3 258.9 389.6 225 375 C 191.1 389.6 123.9 375.3 90 385 C 76.46 389.9 66.77 389.7 60 380 C 73.54 360.6 90 360 90 360 z" />
		<path d="M 150 320 C 175 345 275 345 300 320 C 305 305 300 300 300 300 C 300 275 275 260 275 260 C 330 245 335 145 225 105 C 115 145 120 245 175 260 C 175 260 150 275 150 300 C 150 300 145 305 150 320 Z" />
		<path d="M 250 80 A 25 25 90 1 1 200 80 A 25 25 90 1 1 250 80 Z" />
		<path d="M 175 260 L 275 260 M 150 300 L 300 300 M 225 155 L 225 205 M 200 180 L 250 180" style="fill: none; stroke-linecap: round; stroke-linejoin: miter;" />
	</g>

	<!-- white knight //-->
	<g style="fill: none; stroke: #000000; stroke-width: 15; stroke-linecap:round; stroke-linejoin:round;" transform="translate(1350,0)">
		<path d="M 220 100 C 325 110 385 180 380 390 L 150 390 C 150 300 250 325 230 180" style="fill: #ffffff;" />
		<path d="M 240 180 C 243.8 209.1 184.5 253.7 160 270 C 130 290 131.8 313.4 110 310 C 99.58 300.6 124.1 279.6 110 280 C 100 280 111.9 292.3 100 300 C 90 300 59.97 310 60 260 C 60 240 120 140 120 140 C 120 140 138.9 121 140 105 C 132.7 95.06 135 85 135 75 C 145 65 165 100 165 100 L 185 100 C 185 100 192.8 80.08 210 70 C 220 70 220 100 220 100"
			style="fill: #ffffff;" />
		<path d="M 95 255 A 5 5 90 1 1 85 255 A 5 5 90 1 1 95 255 Z" style="fill: #000000;" />
		<path d="M 154.006 145.933 A 15 5 -60 1 1 145.346 140.933 A 15 5 -60 1 1 154.006 145.933 Z"
			style="fill: 000000;" />
	</g>

	<!-- white rook //-->
	<g style="fill: #ffffff; stroke: #000000; stroke-width: 15; stroke-linecap: butt; stroke-linejoin: round;" transform="translate(1800,0)">
		<path d="M 90 390 L 360 390 L 360 360 L 90 360 L 90 390 Z" />
		<path d="M 120 360 L 120 320 L 330 320 L 330 360 L 120 360 z" />
		<path d="M 110 140 L 110 90 L 150 90 L 150 110 L 200 110 L 200 90 L 250 90 L 250 110 L 300 110 L 300 90 L 340 90 L 340 140" />
		<path d="M 340 140 L 310 170 L 140 170 L 110 140" style="stroke-linecap: round;" />
		<path d="M 310 170 L 310 295 L 140 295 L 140 170" style=" stroke-linejoin:miter;" />
		<path d="M 310 295 L 325 320 L 125 320 L 140 295" style="stroke-linecap: round;" />
		<path d="M 110 140 L 340 140" style="fill: none; stroke-linecap: round; stroke-linejoin: miter;" />
	</g>

	<!-- white pawn //-->
	<g transform="translate(2250,0)">
		<path d="M 220 90 C 197.9 90 180 107.9 180 130 C 180 138.9 182.9 147.1 187.8 153.8 C 168.3 165 155 185.9 155 210 C 155 230.3 164.4 248.4 179.1 260.3 C 149.1 270.9 105 315.8 105 395 L 335 395 C 335 315.8 290.9 270.9 260.9 260.3 C 275.6 248.4 285 230.3 285 210 C 285 185.9 271.7 165 252.2 153.8 C 257.1 147.1 260 138.9 260 130 C 260 107.9 242.1 90 220 90 z"
			style="fill: #ffffff; stroke: #000000; stroke-width: 15; stroke-linecap: round; stroke-linejoin: miter;" />
	</g>

	<!-- black king //-->
	<g style="fill: none; stroke: #000000; stroke-width: 15; stroke-linecap: round; stroke-linejoin: round;" transform="translate(0,450)">
		<path d="M 225 116.3 L 225 60" style="stroke-linejoin: miter;" />
		<path d="M 225 250 C 225 250 270 175 255 145 C 255 145 245 120 225 120 C 205 120 195 145 195 145 C 180 175 225 250 225 250"
			style="fill:#000000;fill-opacity:1; stroke-linecap:butt; stroke-linejoin:miter;" />
		<path d="M 115 370 C 170 405 270 405 325 370 L 325 300 C 325 300 415 255 385 195 C 345 130 250 160 225 235 L 225 270 L 225 235 C 190 160 95 130 65 195 C 35 255 115 295 115 295 L 115 370 Z"
			style="fill:#000000;" />
		<path d="M 200 80 L 250 80" style="stroke-linejoin: miter;" />
		<path d="M 320 295 C 320 295 405 255 380.3 198.5 C 341.5 140 250 180 225 245 L 225.1 266 L 225 245 C 200 180 99.06 140 69.97 198.5 C 45 255 118.5 288.5 118.5 288.5"
			style="stroke: #ffffff;" />
		<path d="M 115 300 C 170 270 270 270 325 300 M 115 335 C 170 305 270 305 325 335 M 115 370 C 170 340 270 340 325 370"
			style="stroke: #ffffff;" />
	</g>

	<!-- black queen //-->
	<g style="opacity:1; fill: none; stroke: #000000; stroke-width: 15; stroke-linecap: round; stroke-linejoin: round;" transform="translate(450,450)">
		<g style="fill: #000000; stroke:none;">
			<circle cx="60"  cy="120" r="27.5" />
			<circle cx="140" cy="90"  r="27.5" />
			<circle cx="225" cy="80"  r="27.5" />
			<circle cx="310" cy="90"  r="27.5" />
			<circle cx="390" cy="120" r="27.5" />
		</g>
		<path d="M 90 260 C 175 245 300 245 360 260 L 385 135 L 310 250 L 307 109 L 255 245 L 225 100 L 195 245 L 143 109 L 140 250 L 65 135 L 90 260 Z"
			style="fill: #000000; stroke-linecap: butt;" />
		<path d="M 90 260 C 90 280 105 280 115 300 C 125 315 125 310 120 335 C 105 345 105 360 105 360 C 90 375 110 385 110 385 C 175 395 275 395 340 385 C 340 385 355 375 340 360 C 340 360 345 345 330 335 C 325 310 325 315 335 300 C 345 280 360 280 360 260 C 275 245 175 245 90 260 Z"
			style="fill: #000000; stroke-linecap: butt;" />
		<path d="M 110 385 A 350 350 90 0 0 340 385" style="stroke-linecap: butt;" />
		<path d="M 110 290 A 350 350 90 0 1 340 290" style="stroke: #ffffff;" />
		<path d="M 125 315 L 325 315" style="stroke: #ffffff;" />
		<path d="M 115 345 A 350 350 90 0 0 335 345" style="stroke: #ffffff;" />
		<path d="M 105 375 A 350 350 90 0 0 345 375" style="stroke: #ffffff;" />
	</g>

	<!-- black bishop //-->
	<g style="fill: #000000; stroke: #000000; stroke-width:15; stroke-linecap: butt; stroke-linejoin: round;" transform="translate(900,450)">
		<path d="M 90 360 C 123.9 350.3 191.1 364.3 225 340 C 258.9 364.3 326.1 350.3 360 360 C 360 360 376.5 365.4 390 380 C 383.2 389.7 373.5 389.9 360 385 C 326.1 375.3 258.9 389.6 225 375 C 191.1 389.6 123.9 375.3 90 385 C 76.46 389.9 66.77 389.7 60 380 C 73.54 360.6 90 360 90 360 Z" />
		<path d="M 150 320 C 175 345 275 345 300 320 C 305 305 300 300 300 300 C 300 275 275 260 275 260 C 330 245 335 145 225 105 C 115 145 120 245 175 260 C 175 260 150 275 150 300 C 150 300 145 305 150 320 Z" />
		<path d="M 250 80 A 25 25 90 1 1 200 80 A 25 25 90 1 1 250 80 Z" />
		<path d="M 175 260 L 275 260 M 150 300 L 300 300 M 225 155 L 225 205 M 200 180 L 250 180"
			style="fill: none; stroke: #ffffff; stroke-linecap: round; stroke-linejoin: miter;" />
	</g>

	<!-- black knight //-->
	<g style="fill: #ffffff; stroke: #000000; stroke-width: 15; stroke-linecap: round; stroke-linejoin: round;" transform="translate(1350,450)">
		<path d="M 220 100 C 325 110 385 180 380 390 L 150 390 C 150 300 250 325 230 180"
			style="fill:#000000;" />
		<path d="M 240 180 C 243.8 209.1 184.5 253.7 160 270 C 130 290 131.8 313.4 110 310 C 99.58 300.6 124.1 279.6 110 280 C 100 280 111.9 292.3 100 300 C 90 300 59.97 310 60 260 C 60 240 120 140 120 140 C 120 140 138.9 121 140 105 C 132.7 95.06 135 85 135 75 C 145 65 165 100 165 100 L 185 100 C 185 100 192.8 80.08 210 70 C 220 70 220 100 220 100"
			style="fill:#000000;" />
		<path d="M 95 255 A 5 5 90 1 1 85 255 A 5 5 90 1 1 95 255 Z" style="stroke: #ffffff;" />
		<path d="M 154.006 145.933 A 15 5 -60 1 1 145.346 140.933 A 15 5 -60 1 1 154.006 145.933 z" style="stroke:#ffffff;" />
		<path d="M 245.5 104 L 241 118.5 L 246 120 C 277.5 130 302.5 144.9 325 187.5 C 347.5 230.1 357.5 290.6 352.5 390 L 352 395 L 374.5 395 L 375 390 C 380 289.4 366.2 221.5 342.5 176.6 C 318.8 131.7 284.6 110.2 250.6 105 L 245.5 104 Z"
			style="stroke:none;" />
	</g>

	<!-- black rook //-->
	<g style="fill: none; stroke: #ffffff; stroke-width: 10; stroke-linecap: round; stroke-linejoin: miter;" transform="translate(1800,450)">
		<g style="fill: #000000; stroke: #000000; stroke-width: 15; stroke-linecap: butt; stroke-linejoin: round;">
			<path d="M 90 390 L 360 390 L 360 360 L 90 360 L 90 390 Z" />
			<path d="M 125 320 L 140 295 L 310 295 L 325 320 L 125 320 Z" />
			<path d="M 120 360 L 120 320 L 330 320 L 330 360 L 120 360 Z" />
			<path d="M 140 295 L 140 165 L 310 165 L 310 295 L 140 295 Z"
				style="stroke-linejoin: miter;" />
			<path d="M 140 165 L 110 140 L 340 140 L 310 165 L 140 165 Z" />
			<path d="M 110 140 L 110 90 L 150 90 L 150 110 L 200 110 L 200 90 L 250 90 L 250 110 L 300 110 L 300 90 L 340 90 L 340 140 L 110 140 Z" />
		</g>
		<path d="M 120 355 L 330 355 L 330 355" />
		<path d="M 130 315 L 320 315" />
		<path d="M 140 295 L 310 295" />
		<path d="M 140 165 L 310 165" />
		<path d="M 110 140 L 340 140" />
	</g>

	<!-- black pawn //-->
	<g transform="translate(2250,450)">
		<path d="M 220 90 C 197.9 90 180 107.9 180 130 C 180 138.9 182.9 147.1 187.8 153.8 C 168.3 165 155 185.9 155 210 C 155 230.3 164.4 248.4 179.1 260.3 C 149.1 270.9 105 315.8 105 395 L 335 395 C 335 315.8 290.9 270.9 260.9 260.3 C 275.6 248.4 285 230.3 285 210 C 285 185.9 271.7 165 252.2 153.8 C 257.1 147.1 260 138.9 260 130 C 260 107.9 242.1 90 220 90 Z"
			style="fill: #000000; stroke: #000000; stroke-width: 15; stroke-linecap: round; stroke-linejoin: miter;" />
	</g>
</svg>
